<?xml version="1.0" standalone="no"?>
<!DOCTYPE svg PUBLIC "-//W3C//DTD SVG 20010904//EN"
 "http://www.w3.org/TR/2001/REC-SVG-20010904/DTD/svg10.dtd">
<svg version="1.0" xmlns="http://www.w3.org/2000/svg"
 width="586.000000pt" height="600.000000pt" viewBox="0 0 586.000000 600.000000"
 preserveAspectRatio="xMidYMid meet">

<g transform="translate(0.000000,600.000000) scale(0.100000,-0.100000)"
fill="#000000" stroke="none">
<path d="M2780 5989 c-89 -11 -227 -52 -316 -93 -214 -99 -407 -282 -515 -489
-176 -337 -177 -740 -3 -1063 157 -292 444 -509 758 -574 l56 -11 -2 -267 -3
-266 -100 -13 c-397 -49 -807 -226 -1117 -481 -92 -76 -250 -236 -323 -327
-135 -169 -265 -399 -340 -600 -20 -55 -42 -103 -49 -107 -6 -4 -42 -8 -81 -8
-157 -1 -328 -69 -473 -189 -103 -85 -211 -260 -247 -400 -103 -405 151 -823
572 -943 102 -29 295 -31 392 -4 232 64 420 221 520 437 57 123 75 216 68 358
-11 250 -126 464 -335 621 l-33 25 45 113 c53 132 107 234 186 352 74 110 111
154 228 273 251 255 559 424 912 500 63 14 136 28 163 31 l47 6 -2 -596 -3
-596 -80 -27 c-202 -68 -355 -202 -451 -396 -54 -110 -73 -183 -81 -300 -23
-363 226 -701 591 -802 97 -27 300 -24 396 6 346 106 571 402 571 751 1 340
-191 616 -511 737 l-85 32 -3 596 -2 596 52 -7 c29 -3 104 -17 167 -31 571
-124 1052 -530 1286 -1084 65 -155 66 -158 11 -192 -106 -66 -227 -214 -277
-338 -49 -125 -54 -149 -54 -304 0 -139 2 -157 29 -238 82 -251 285 -445 543
-519 64 -18 102 -22 208 -22 119 1 138 3 225 33 256 87 441 279 514 535 22 76
26 108 26 227 0 127 -3 147 -30 231 -42 132 -90 208 -200 319 -81 82 -109 103
-190 143 -119 59 -179 75 -306 83 l-102 6 -37 101 c-46 127 -147 322 -230 446
-213 318 -487 565 -825 743 -223 118 -516 208 -763 233 l-67 6 2 265 3 265
111 28 c319 80 569 285 714 584 117 239 145 516 80 771 -142 555 -668 908
-1240 834z"/>
</g>
</svg>
